<svg width="534" height="534" viewBox="0 0 534 534" fill="none" xmlns="http://www.w3.org/2000/svg">
<path d="M267 533.667C414.276 533.667 533.667 414.276 533.667 267C533.667 119.724 414.276 0.333344 267 0.333344C119.724 0.333344 0.333374 119.724 0.333374 267C0.333374 414.276 119.724 533.667 267 533.667Z" fill="#FF4500"/>
<path d="M444.778 267C444.778 245.479 427.312 228.014 405.791 228.014C395.187 228.014 385.83 232.068 378.969 238.93C352.458 219.904 315.655 207.429 275.109 205.869L292.887 122.595L350.587 134.758C351.211 149.417 363.374 161.269 378.345 161.269C393.628 161.269 406.103 148.793 406.103 133.511C406.103 118.228 393.628 105.752 378.345 105.752C367.429 105.752 358.072 111.99 353.706 121.347L289.144 107.624C287.273 107.312 285.402 107.624 283.842 108.559C282.283 109.495 281.347 111.055 280.723 112.926L261.074 205.869C219.593 207.117 182.478 219.281 155.655 238.93C148.793 232.38 139.125 228.014 128.832 228.014C107.312 228.014 89.8461 245.479 89.8461 267C89.8461 282.906 99.2028 296.318 112.926 302.556C112.302 306.298 111.99 310.353 111.99 314.407C111.99 374.29 181.542 422.634 267.624 422.634C353.706 422.634 423.257 374.29 423.257 314.407C423.257 310.353 422.945 306.61 422.322 302.867C435.109 296.63 444.778 282.906 444.778 267ZM178.111 294.758C178.111 279.476 190.587 267 205.869 267C221.152 267 233.628 279.476 233.628 294.758C233.628 310.041 221.152 322.517 205.869 322.517C190.587 322.517 178.111 310.041 178.111 294.758ZM333.121 368.053C314.096 387.078 277.916 388.326 267.312 388.326C256.708 388.326 220.216 386.766 201.503 368.053C198.696 365.246 198.696 360.567 201.503 357.76C204.31 354.953 208.988 354.953 211.795 357.76C223.647 369.612 249.222 373.979 267.624 373.979C286.025 373.979 311.289 369.612 323.452 357.76C326.259 354.953 330.938 354.953 333.745 357.76C335.928 360.879 335.928 365.246 333.121 368.053ZM328.131 322.517C312.848 322.517 300.372 310.041 300.372 294.758C300.372 279.476 312.848 267 328.131 267C343.413 267 355.889 279.476 355.889 294.758C355.889 310.041 343.413 322.517 328.131 322.517Z" fill="white"/>
</svg>
