<svg width="800" height="800" viewBox="0 0 800 800" fill="none" xmlns="http://www.w3.org/2000/svg">
<circle cx="399.5" cy="400.5" r="304.5" fill="white"/>
<path d="M464.12 393.32L374.28 351.4C366.44 347.76 360 351.84 360 360.52V439.48C360 448.16 366.44 452.24 374.28 448.6L464.08 406.68C471.96 403 471.96 397 464.12 393.32ZM400 16C187.92 16 16 187.92 16 400C16 612.08 187.92 784 400 784C612.08 784 784 612.08 784 400C784 187.92 612.08 16 400 16ZM400 556C203.44 556 200 538.28 200 400C200 261.72 203.44 244 400 244C596.56 244 600 261.72 600 400C600 538.28 596.56 556 400 556Z" fill="#FF0000"/>
</svg>
